<svg version="1.1" id="Layer_1" xmlns="http://www.w3.org/2000/svg" xmlns:xlink="http://www.w3.org/1999/xlink" x="0px" y="0px"
	 width="100%" viewBox="0 0 1024 1024" enable-background="new 0 0 1024 1024" xml:space="preserve">
<path fill="#000000" opacity="1.000000" stroke="none" 
	d="
M491.818054,214.656158 
	C546.883545,210.670258 598.775879,220.988235 647.452881,245.752029 
	C712.391724,278.788788 759.450867,329.035400 788.410095,396.011810 
	C800.244446,423.382233 807.549927,451.937653 810.434326,481.638702 
	C818.563599,565.347229 796.284668,640.133545 742.582336,704.662964 
	C695.076660,761.746277 634.003113,796.623291 560.417847,808.327576 
	C486.954224,820.012512 418.032166,806.409424 355.067078,766.936646 
	C284.873505,722.932251 240.345535,659.806213 221.166840,579.152100 
	C213.919281,548.673279 211.859467,517.640076 214.829208,486.425323 
	C220.889282,422.728577 244.423294,366.327484 286.278473,317.770508 
	C323.299286,274.821869 368.910461,244.747070 422.904633,227.534378 
	C445.154236,220.441498 467.990967,216.056137 491.818054,214.656158 
M405.273773,421.240051 
	C398.662445,416.097839 393.798584,409.064331 387.415253,403.783783 
	C385.256592,405.591064 385.362427,407.473328 385.360931,409.293121 
	C385.357330,413.624084 385.135101,417.914459 384.378021,422.207703 
	C377.116699,463.383575 353.759766,491.468628 315.213562,507.049896 
	C299.274780,513.492676 282.441589,513.837646 265.543701,513.428528 
	C258.353394,513.254333 257.795563,514.030945 257.929138,521.050049 
	C258.154175,532.875488 259.286316,544.598328 261.310394,556.261536 
	C269.912048,605.826111 291.100006,649.329468 325.272797,686.117310 
	C366.626221,730.635315 417.559448,757.407715 477.917267,765.993286 
	C507.059082,770.138550 536.021851,769.100037 564.756958,763.202026 
	C598.942078,756.185425 630.412231,742.577393 659.008728,722.516602 
	C698.707031,694.667725 728.280884,658.484741 747.590576,614.006531 
	C757.790527,590.511902 764.143250,566.004456 766.942993,540.482910 
	C769.226929,519.663879 768.776184,498.985107 766.111328,478.281006 
	C765.199524,471.197113 765.818665,471.071716 757.286194,471.072388 
	C684.140747,471.078125 610.995239,471.052155 537.849792,471.109222 
	C527.504150,471.117310 517.177429,470.589386 506.990723,469.047394 
	C468.641693,463.242462 434.761810,447.676300 405.273773,421.240051 
M496.564636,258.261749 
	C490.110626,258.916504 483.637299,259.421631 477.205872,260.251434 
	C446.286224,264.240936 417.346405,274.221344 390.028259,289.135956 
	C386.871307,290.859528 385.977966,293.120453 386.476990,296.494171 
	C392.414001,336.630554 410.501068,369.982422 442.480652,395.204926 
	C466.794861,414.381683 494.547913,426.201111 525.650879,426.516235 
	C599.640320,427.265930 673.641174,426.884491 747.637451,426.931427 
	C752.892212,426.934753 753.353638,426.241669 751.500549,421.479797 
	C731.146301,369.175476 697.455688,327.604187 650.141052,297.500183 
	C603.638977,267.913177 552.629700,254.830795 496.564636,258.261749 
M341.444946,412.904022 
	C341.500305,384.095184 341.558441,355.286377 341.581787,326.477509 
	C341.582092,326.085999 341.142914,325.694153 340.506378,324.628876 
	C298.170166,364.186859 271.942413,411.974731 261.428436,468.660736 
	C300.159851,475.599884 335.723053,453.367218 341.444946,412.904022 
z"/>
<path fill="#000000" opacity="1.000000" stroke="none" 
	d="
M676.367310,530.724243 
	C693.453613,557.702942 680.733215,590.537537 650.710449,597.789917 
	C627.626709,603.366150 603.274475,587.958862 598.798157,564.945923 
	C593.889343,539.709473 609.955017,515.957458 634.580322,512.932922 
	C651.518494,510.852509 665.737610,516.426270 676.367310,530.724243 
z"/>
<path fill="#000000" opacity="1.000000" stroke="none" 
	d="
M417.315125,526.724304 
	C438.548401,553.351807 426.739746,589.976685 394.730103,597.773193 
	C371.454163,603.442444 347.060852,587.807861 342.736725,564.448669 
	C338.092041,539.357910 354.178589,515.937439 378.561859,512.890808 
	C393.484528,511.026276 406.560028,515.345154 417.315125,526.724304 
z"/>
</svg>